<?xml version="1.0" standalone="no"?>
<!DOCTYPE svg PUBLIC "-//W3C//DTD SVG 20010904//EN"
 "http://www.w3.org/TR/2001/REC-SVG-20010904/DTD/svg10.dtd">
<svg version="1.0" xmlns="http://www.w3.org/2000/svg"
 width="6400.000000pt" height="5288.000000pt" viewBox="0 0 6400.000000 5288.000000"
 preserveAspectRatio="xMidYMid meet">

<g transform="translate(0.000000,5288.000000) scale(0.100000,-0.100000)"
fill="#000000" stroke="none">
<path d="M2090 50221 l0 -349 -30 -12 -30 -12 0 -609 0 -609 -30 0 -30 0 0
-815 0 -815 30 0 30 0 0 -450 0 -450 30 0 30 0 0 -345 c0 -329 1 -345 18 -345
18 0 19 -14 25 -187 5 -173 39 -486 70 -652 11 -57 16 -67 45 -84 18 -11 35
-17 37 -15 8 8 6 521 -2 529 -4 4 -19 9 -33 11 l-25 3 -3 398 c-1 253 -6 397
-12 397 -6 0 -10 26 -10 58 0 32 -6 66 -13 77 -8 11 -15 37 -15 57 -1 20 -6
65 -12 100 -20 113 -23 158 -11 158 6 0 11 -10 11 -22 1 -23 1 -23 15 2 8 14
14 37 15 53 0 15 4 27 10 27 5 0 11 -30 13 -67 2 -51 4 -42 5 37 1 58 -2 100
-6 94 -4 -7 -8 24 -8 67 -2 77 -13 111 -37 106 -11 -2 -11 59 0 163 3 30 0 78
-7 108 -10 45 -9 61 5 107 14 44 16 71 10 137 -5 46 -9 154 -10 242 -1 151 -2
159 -23 176 -23 19 -32 80 -12 80 6 0 3 14 -6 32 -15 28 -17 81 -19 412 -2
263 -7 382 -14 384 -6 2 -11 29 -11 62 0 37 -4 60 -12 62 -20 7 -14 403 7 465
9 26 19 80 22 118 3 39 10 75 14 81 5 6 8 29 7 50 0 22 5 56 11 77 7 21 11 47
8 58 -3 10 -1 22 4 25 5 3 5 12 0 23 -8 15 -2 139 23 416 4 48 5 331 2 693 0
42 -1 42 -38 42 l-38 0 0 -349z"/>
<path d="M2260 50564 c0 -8 57 -62 150 -142 19 -17 33 -33 30 -36 -3 -3 -27 1
-52 9 -56 17 -82 14 -87 -10 -6 -32 10 -145 23 -158 15 -15 28 -59 15 -51 -5
3 -9 -2 -9 -10 0 -22 14 -26 51 -15 32 9 206 2 196 -8 -3 -2 5 -14 17 -27 11
-12 31 -34 43 -49 19 -22 31 -27 67 -27 24 0 48 -6 54 -12 5 -7 13 -39 16 -70
l7 -57 117 -3 117 -3 7 -50 c7 -54 33 -125 47 -125 4 0 44 -34 87 -76 57 -54
80 -71 82 -59 2 9 -1 22 -7 29 -17 20 -2 47 23 43 30 -4 96 -38 96 -48 0 -5 7
-9 16 -9 9 0 22 -7 28 -16 7 -9 18 -13 30 -8 15 6 11 14 -31 57 -26 27 -66 63
-88 79 -22 16 -86 74 -141 129 -85 83 -107 99 -133 99 -28 0 -31 3 -31 33 0
27 -6 36 -26 46 -32 14 -42 8 -52 -32 -5 -18 -16 -33 -25 -35 -17 -3 -77 48
-77 66 0 6 -15 16 -34 23 -29 11 -33 15 -25 31 6 11 21 18 39 18 25 0 30 -4
30 -24 0 -30 20 -47 48 -39 22 5 32 33 12 33 -5 0 -10 15 -10 33 0 28 -8 41
-47 74 -64 53 -127 95 -190 127 -47 23 -53 30 -53 58 0 46 -71 118 -117 118
-31 0 -33 2 -33 33 0 26 -6 36 -23 44 -32 15 -157 28 -157 17z"/>
<path d="M61590 50410 c0 -27 -3 -30 -30 -30 -27 0 -30 -3 -30 -30 0 -27 -3
-30 -30 -30 -27 0 -30 -3 -30 -33 0 -27 -5 -35 -27 -44 -25 -10 -21 -11 35
-12 56 -1 63 1 58 17 -4 11 7 32 29 57 54 63 95 118 95 129 0 3 -16 6 -35 6
-32 0 -35 -2 -35 -30z"/>
<path d="M61780 50344 c0 -8 5 -12 10 -9 6 3 10 10 10 16 0 5 -4 9 -10 9 -5 0
-10 -7 -10 -16z"/>
<path d="M61767 50257 c-5 -35 -3 -66 3 -77 20 -37 27 -20 18 48 -12 93 -14
95 -21 29z"/>
<path d="M61675 50190 c4 -6 11 -8 16 -5 14 9 11 15 -7 15 -8 0 -12 -5 -9 -10z"/>
<path d="M61275 50120 c-26 -10 -155 -120 -169 -143 -8 -13 -8 -20 4 -27 29
-18 74 -3 110 37 30 34 39 39 63 32 20 -5 27 -4 27 6 0 8 7 20 15 29 8 8 18
29 21 45 6 29 5 31 -22 30 -16 0 -38 -4 -49 -9z"/>
<path d="M61783 50085 c0 -22 2 -30 4 -17 2 12 2 30 0 40 -3 9 -5 -1 -4 -23z"/>
<path d="M61812 50100 c0 -14 2 -19 5 -12 2 6 2 18 0 25 -3 6 -5 1 -5 -13z"/>
<path d="M61991 49943 c-5 -21 -12 -70 -16 -109 -7 -76 4 -113 48 -161 38 -42
45 -30 46 72 1 98 -12 174 -37 213 -20 31 -30 28 -41 -15z"/>
<path d="M61820 49891 c0 -6 4 -13 10 -16 6 -3 7 1 4 9 -7 18 -14 21 -14 7z"/>
<path d="M60997 49814 c-4 -4 -7 -14 -7 -23 0 -11 3 -12 11 -4 6 6 10 16 7 23
-2 6 -7 8 -11 4z"/>
<path d="M60970 49795 c0 -10 -10 -15 -31 -15 -29 0 -30 -1 -26 -36 6 -40 17
-58 17 -26 0 13 7 22 21 24 16 2 23 11 25 36 2 17 2 32 -1 32 -3 0 -5 -7 -5
-15z"/>
<path d="M60880 49701 c0 -5 -8 -12 -17 -14 -11 -3 -7 -5 10 -6 18 -1 27 4 27
14 0 8 -4 15 -10 15 -5 0 -10 -4 -10 -9z"/>
<path d="M60780 49629 c0 -5 5 -7 10 -4 6 3 10 8 10 11 0 2 -4 4 -10 4 -5 0
-10 -5 -10 -11z"/>
<path d="M60748 49603 c-10 -2 -18 -9 -18 -15 0 -6 10 -8 23 -4 12 3 34 6 50
6 15 0 27 5 27 10 0 10 -49 12 -82 3z"/>
<path d="M2233 49560 c0 -25 2 -35 4 -22 2 12 2 32 0 45 -2 12 -4 2 -4 -23z"/>
<path d="M60618 49544 c-21 -11 -28 -22 -28 -44 0 -27 -3 -30 -30 -30 -27 0
-30 -3 -30 -30 0 -26 -5 -30 -42 -40 -24 -6 -51 -13 -60 -16 -12 -4 -18 -15
-18 -34 0 -25 -4 -29 -32 -32 -28 -2 -33 -7 -33 -28 0 -30 28 -39 51 -16 20
20 83 21 112 1 18 -13 26 -14 44 -4 13 7 41 18 63 24 28 9 40 18 40 31 0 15
-9 20 -42 22 -24 2 -43 8 -43 13 0 12 38 87 53 105 7 8 25 28 40 44 42 46 15
67 -45 34z"/>
<path d="M3497 49510 c3 -11 8 -20 12 -20 12 0 32 -67 25 -84 -4 -10 -17 -21
-30 -26 -20 -8 -22 -14 -17 -47 3 -21 12 -45 19 -54 8 -8 14 -25 14 -37 0 -13
6 -22 16 -22 9 0 18 -9 21 -20 3 -10 14 -22 24 -25 10 -4 19 -13 19 -21 0 -17
52 -19 79 -2 31 19 51 3 51 -42 0 -35 6 -47 46 -86 46 -45 100 -74 135 -74 17
0 40 38 52 85 3 11 12 37 21 57 l16 37 -36 28 c-20 15 -66 53 -103 83 -134
113 -305 243 -318 243 -7 0 -11 3 -8 5 6 6 -25 42 -36 42 -4 0 -5 -9 -2 -20z
m349 -425 c9 -8 13 -15 11 -15 -3 0 -12 -3 -20 -6 -9 -3 -16 3 -20 15 -6 25 8
27 29 6z"/>
<path d="M2174 49190 c0 -63 1 -89 3 -57 2 31 2 83 0 115 -2 31 -3 5 -3 -58z"/>
<path d="M60248 49223 c6 -2 18 -2 25 0 6 3 1 5 -13 5 -14 0 -19 -2 -12 -5z"/>
<path d="M60192 49187 c-17 -12 -32 -30 -32 -39 0 -14 -8 -18 -34 -18 -32 0
-35 -3 -38 -32 -3 -30 -7 -33 -60 -46 -56 -14 -58 -15 -58 -47 0 -30 -3 -33
-46 -45 -36 -10 -49 -20 -62 -47 -13 -28 -21 -33 -49 -33 -30 0 -33 -3 -33
-29 0 -22 6 -32 22 -37 19 -6 20 -7 4 -16 -9 -5 -25 -6 -34 -2 -27 11 -55 12
-84 2 -23 -8 -28 -16 -28 -44 0 -31 -3 -34 -29 -34 -23 0 -30 -5 -34 -29 -5
-24 -12 -30 -44 -36 -21 -3 -48 -12 -60 -18 -19 -11 -20 -14 -7 -31 10 -15 25
-19 59 -18 40 2 47 -1 57 -24 l12 -26 10 24 9 23 5 -25 c2 -14 -1 -26 -8 -28
-9 -3 -9 -7 1 -13 9 -6 10 -9 2 -9 -6 0 -15 5 -18 10 -10 16 -52 12 -59 -6 -3
-8 -3 -26 0 -40 5 -20 2 -24 -14 -24 -23 0 -35 -14 -39 -44 -3 -20 -3 -20 19
0 13 10 39 28 58 38 19 11 45 30 57 43 12 13 26 23 30 23 5 0 14 9 21 20 7 11
19 20 27 20 8 0 20 9 27 20 7 11 17 20 23 20 28 1 72 60 45 60 -5 0 -10 7 -10
15 0 18 -30 20 -31 3 0 -7 -4 -4 -8 7 -11 27 16 62 52 70 24 6 26 9 15 23 -7
9 -8 13 -3 10 6 -4 17 -3 25 2 12 7 12 10 -3 16 -9 3 -17 13 -17 21 0 8 5 11
10 8 6 -3 10 -1 10 5 0 7 6 5 15 -4 8 -8 15 -32 15 -53 0 -53 12 -68 39 -54
11 7 21 18 21 26 0 10 11 15 34 15 29 0 42 9 84 56 l51 56 47 -10 c38 -8 52
-7 71 5 13 9 22 18 19 20 -3 3 0 17 6 32 6 14 10 36 9 48 0 13 4 22 10 20 6
-1 13 3 15 9 4 10 -11 19 -68 42 -19 8 -26 16 -22 27 3 8 11 12 18 8 6 -4 5 1
-3 10 -12 15 -10 17 15 17 l29 1 -27 14 c-26 15 -27 16 -12 51 8 20 14 38 12
40 -2 2 -18 -7 -36 -19z m-389 -421 c4 -10 1 -13 -9 -9 -7 3 -14 9 -14 14 0
14 17 10 23 -5z m114 -32 c-9 -9 -28 6 -21 18 4 6 10 6 17 -1 6 -6 8 -13 4
-17z m-252 -84 c18 -7 18 -8 -7 -15 -29 -7 -52 1 -43 16 7 11 23 11 50 -1z"/>
<path d="M60545 49200 c-3 -5 1 -10 10 -10 9 0 13 5 10 10 -3 6 -8 10 -10 10
-2 0 -7 -4 -10 -10z"/>
<path d="M60361 49081 c-7 -5 -12 -14 -9 -21 3 -10 8 -9 19 3 9 8 24 17 35 20
15 4 14 5 -6 6 -14 0 -31 -3 -39 -8z"/>
<path d="M4005 49048 c-3 -7 -4 -34 -2 -60 2 -46 3 -47 45 -58 44 -11 47 -16
43 -80 -2 -29 48 -83 91 -99 14 -5 50 -7 80 -4 53 5 55 5 67 -25 7 -17 10 -35
7 -40 -3 -5 2 -18 10 -30 13 -19 25 -22 88 -22 77 0 96 -9 96 -47 0 -16 4 -21
15 -17 13 5 13 9 3 23 -12 14 -11 14 4 3 9 -8 25 -13 35 -12 10 1 23 2 28 1
16 -2 43 -61 49 -106 6 -45 36 -76 66 -68 16 4 20 0 20 -21 0 -21 5 -26 23
-26 35 0 64 -38 72 -95 4 -32 17 -63 37 -87 l30 -38 131 1 c73 1 119 4 102 6
-74 8 -103 23 -119 58 -24 50 -14 75 30 73 28 -1 38 -7 47 -27 11 -24 16 -26
57 -21 l45 5 -38 37 c-21 21 -50 40 -65 43 -15 4 -50 13 -79 21 -47 14 -52 18
-55 47 -3 36 -1 34 -259 212 -95 66 -246 176 -334 244 -88 68 -176 131 -195
140 -19 9 -37 19 -40 23 -5 7 -115 58 -125 58 -3 0 -8 -6 -10 -12z"/>
<path d="M2154 48825 c0 -82 2 -115 3 -72 2 43 2 110 0 150 -1 40 -3 5 -3 -78z"/>
<path d="M61874 48637 c-11 -197 -11 -552 0 -589 5 -18 5 -28 -2 -28 -6 0 -12
12 -15 28 -2 15 -4 -19 -5 -75 0 -55 -6 -121 -13 -145 -7 -23 -12 -95 -12
-158 0 -63 -3 -97 -6 -75 -3 22 -6 -108 -5 -290 1 -323 2 -331 24 -367 12 -21
26 -38 30 -38 5 0 12 -9 15 -20 10 -31 23 -24 34 18 13 45 13 76 1 47 -8 -19
-9 -19 -9 3 -1 12 4 22 9 22 6 0 10 7 10 16 0 9 -5 12 -12 8 -8 -5 -9 0 -4 17
15 52 18 87 7 93 -7 4 -7 15 -1 31 5 13 8 47 8 76 -1 35 -4 46 -9 33 -10 -24
-10 -19 -15 121 -3 108 -6 537 -4 605 5 160 -2 820 -8 824 -5 3 -13 -68 -18
-157z m-29 -1297 c3 -5 1 -10 -4 -10 -6 0 -11 5 -11 10 0 6 2 10 4 10 3 0 8
-4 11 -10z m72 -177 c-3 -10 -5 -2 -5 17 0 19 2 27 5 18 2 -10 2 -26 0 -35z
m-80 -100 c-2 -16 -4 -5 -4 22 0 28 2 40 4 28 2 -13 2 -35 0 -50z m80 -5 c-3
-8 -6 -5 -6 6 -1 11 2 17 5 13 3 -3 4 -12 1 -19z"/>
<path d="M59870 48690 c0 -5 5 -10 10 -10 6 0 10 5 10 10 0 6 -4 10 -10 10 -5
0 -10 -4 -10 -10z"/>
<path d="M4502 48505 c-2 -117 5 -127 78 -113 64 13 70 16 50 28 -13 8 -12 10
3 10 9 0 17 5 17 10 0 6 -7 10 -15 10 -8 0 -15 7 -15 15 0 8 -4 15 -10 15 -5
0 -10 -9 -10 -21 0 -15 -5 -19 -15 -15 -18 7 -20 -5 -3 -22 9 -9 6 -12 -15
-12 -25 0 -27 3 -28 48 -1 51 -3 49 -16 -13 -7 -35 -8 -28 -13 55 l-6 95 -2
-90z"/>
<path d="M62121 48514 c0 -11 3 -14 6 -6 3 7 2 16 -1 19 -3 4 -6 -2 -5 -13z"/>
<path d="M59420 48360 c0 -5 5 -10 10 -10 6 0 10 5 10 10 0 6 -4 10 -10 10 -5
0 -10 -4 -10 -10z"/>
<path d="M5223 48203 c-7 -2 -13 -13 -13 -24 0 -18 1 -18 20 -2 30 26 26 40
-7 26z"/>
<path d="M5280 48137 c0 -32 43 -49 54 -21 8 21 5 24 -28 30 -17 3 -26 0 -26
-9z"/>
<path d="M59118 48143 c18 -2 45 -2 60 0 15 2 0 4 -33 4 -33 0 -45 -2 -27 -4z"/>
<path d="M5350 48104 c0 -8 7 -22 15 -30 13 -14 15 -13 15 5 0 12 6 21 13 21
8 0 7 4 -3 10 -22 14 -40 12 -40 -6z"/>
<path d="M5168 48070 c-3 -17 0 -34 6 -38 6 -4 42 -6 80 -4 46 3 64 7 55 13
-8 5 -26 9 -41 9 -16 0 -28 5 -28 11 0 17 -27 39 -48 39 -14 0 -21 -8 -24 -30z"/>
<path d="M61970 47998 c0 -70 3 -98 10 -88 13 20 13 190 0 190 -6 0 -10 -41
-10 -102z"/>
<path d="M58625 48050 c-10 -11 -15 -20 -11 -20 11 0 39 30 34 36 -3 2 -13 -5
-23 -16z"/>
<path d="M5442 48041 c-12 -7 -19 -27 -21 -58 -1 -7 -10 -13 -21 -13 -25 0
-26 -27 -2 -55 23 -27 106 -69 98 -49 -3 8 1 14 9 14 8 0 15 -7 15 -15 0 -9
11 -20 25 -25 14 -5 30 -20 35 -32 5 -14 9 -17 10 -8 1 8 3 25 6 38 2 12 -1
22 -6 22 -6 0 -9 -3 -7 -7 1 -5 -2 -9 -8 -11 -5 -1 -11 6 -13 18 -2 11 -8 20
-13 20 -5 0 -9 11 -9 24 0 35 -10 56 -26 56 -12 0 -20 42 -16 81 1 3 -6 6 -14
6 -7 0 -14 -5 -14 -11 0 -7 -3 -7 -8 1 -4 7 -13 9 -20 4z"/>
<path d="M58595 48010 c-3 -5 -19 -10 -36 -10 -26 0 -29 -3 -29 -30 0 -30 0
-30 -56 -30 -34 0 -61 -5 -69 -14 -34 -34 -22 -126 16 -126 11 0 19 5 19 10 0
6 5 10 12 10 6 0 20 8 31 17 10 10 32 18 49 19 34 2 48 17 41 45 -7 26 26 38
42 16 7 -10 16 -17 20 -17 4 0 2 6 -4 14 -6 8 -11 18 -10 22 1 5 1 26 0 47 -1
35 -13 48 -26 27z"/>
<path d="M5550 47985 c0 -14 5 -25 10 -25 6 0 10 11 10 25 0 14 -4 25 -10 25
-5 0 -10 -11 -10 -25z"/>
<path d="M58650 47973 c0 -12 3 -14 8 -7 4 7 16 14 27 17 15 4 14 5 -7 6 -21
1 -28 -4 -28 -16z"/>
<path d="M58640 47930 c0 -5 5 -10 10 -10 6 0 10 5 10 10 0 6 -4 10 -10 10 -5
0 -10 -4 -10 -10z"/>
<path d="M5648 47913 c7 -3 16 -2 19 1 4 3 -2 6 -13 5 -11 0 -14 -3 -6 -6z"/>
<path d="M5687 47913 c-4 -3 -7 -26 -7 -51 0 -41 2 -44 22 -39 29 8 48 -9 48
-42 1 -52 40 -78 118 -79 93 -1 92 -1 92 -22 0 -11 4 -20 9 -20 10 0 51 -74
51 -93 0 -17 64 -79 73 -71 4 4 7 3 8 -2 4 -54 19 -82 47 -89 23 -6 25 -8 8
-14 -15 -6 -10 -10 21 -19 39 -12 91 -16 65 -5 -6 2 -10 9 -6 14 6 11 -13 32
-38 42 -10 4 -18 17 -18 30 0 14 -9 31 -21 38 -13 9 -18 20 -14 32 6 13 19 17
56 17 44 0 51 -3 59 -26 10 -26 12 -26 73 -19 62 7 82 14 60 22 -7 2 -31 17
-55 33 -24 17 -46 30 -50 30 -4 0 -17 8 -28 18 -22 18 -238 140 -351 197 -36
18 -86 49 -112 69 -26 20 -53 33 -60 30 -8 -3 -17 2 -20 10 -7 17 -19 21 -30
9z m613 -347 c0 -3 -4 -8 -10 -11 -5 -3 -10 -1 -10 4 0 6 5 11 10 11 6 0 10
-2 10 -4z"/>
<path d="M58700 47910 c0 -5 5 -10 11 -10 5 0 7 5 4 10 -3 6 -8 10 -11 10 -2
0 -4 -4 -4 -10z"/>
<path d="M58592 47839 c2 -6 8 -10 13 -10 5 0 11 4 13 10 2 6 -4 11 -13 11 -9
0 -15 -5 -13 -11z"/>
<path d="M58130 47766 c-26 -8 -36 -19 -42 -43 -5 -18 -12 -33 -16 -33 -4 0
-8 -14 -9 -30 -2 -29 4 -34 38 -31 9 1 28 -3 44 -9 24 -9 31 -7 69 27 22 21
41 41 41 44 0 4 3 11 8 15 4 4 7 21 7 38 0 31 0 32 -53 32 -29 1 -69 -4 -87
-10z"/>
<path d="M58510 47735 c0 -8 2 -15 4 -15 2 0 6 7 10 15 3 8 1 15 -4 15 -6 0
-10 -7 -10 -15z"/>
<path d="M5752 47680 c0 -19 2 -27 5 -17 2 9 2 25 0 35 -3 9 -5 1 -5 -18z"/>
<path d="M58448 47663 c6 -2 18 -2 25 0 6 3 1 5 -13 5 -14 0 -19 -2 -12 -5z"/>
<path d="M57903 47628 c-41 -22 -53 -35 -53 -53 0 -13 5 -25 12 -27 6 -2 -1
-16 -18 -33 l-28 -28 44 -20 c25 -10 60 -21 78 -24 l32 -6 0 112 c0 61 -3 110
-7 110 -5 -1 -32 -15 -60 -31z"/>
<path d="M58280 47640 c0 -5 9 -10 19 -10 11 0 23 5 26 10 4 6 -5 10 -19 10
-14 0 -26 -4 -26 -10z"/>
<path d="M58200 47620 c0 -5 5 -10 10 -10 6 0 10 5 10 10 0 6 -4 10 -10 10 -5
0 -10 -4 -10 -10z"/>
<path d="M6418 47473 c-15 -4 -18 -16 -18 -78 0 -71 1 -73 28 -80 39 -11 151
-26 195 -28 20 0 37 -6 37 -13 0 -6 14 -25 30 -42 17 -18 30 -27 30 -20 0 6 9
3 20 -7 25 -23 29 -101 5 -91 -8 3 -15 1 -15 -4 0 -6 33 -10 75 -10 69 0 75 2
75 21 0 17 5 20 38 17 31 -2 38 -7 40 -28 6 -39 21 -51 57 -44 21 4 44 0 65
-11 32 -16 33 -16 57 8 l25 24 -49 35 c-112 82 -352 188 -425 188 -25 0 -28 3
-28 36 0 32 -4 37 -47 56 -27 11 -66 28 -89 39 -22 10 -47 19 -55 19 -8 0 -19
4 -24 8 -6 5 -18 7 -27 5z"/>
<path d="M57063 47142 c-26 -12 -33 -22 -33 -44 0 -28 -1 -28 -59 -28 l-59 0
-4 -41 c-2 -23 1 -47 7 -55 12 -17 128 -34 149 -22 10 6 16 23 16 44 0 27 5
36 24 43 12 5 33 26 44 45 22 38 20 71 -5 62 -8 -3 -22 -2 -31 3 -11 6 -28 3
-49 -7z m50 -89 c-7 -2 -19 -2 -25 0 -7 3 -2 5 12 5 14 0 19 -2 13 -5z"/>
<path d="M6705 47120 c3 -5 8 -10 11 -10 2 0 4 5 4 10 0 6 -5 10 -11 10 -5 0
-7 -4 -4 -10z"/>
<path d="M7251 47013 c3 -2 4 -14 2 -27 -7 -36 33 -106 68 -118 16 -5 29 -13
29 -17 0 -5 18 -16 39 -26 34 -15 40 -22 43 -56 2 -21 -1 -41 -7 -43 -6 -2 -5
-9 3 -17 11 -11 14 -10 18 9 8 30 54 31 54 2 0 -11 4 -20 9 -20 5 0 12 -12 15
-26 5 -18 20 -31 53 -46 48 -21 87 -25 331 -29 61 -1 112 -6 112 -11 0 -4 10
-7 23 -7 16 1 18 2 5 6 -10 2 -18 8 -18 13 0 5 8 11 18 13 13 4 11 5 -5 6 -13
0 -23 6 -23 12 0 5 -4 8 -9 4 -5 -3 -12 4 -16 15 -9 30 -49 53 -170 99 -60 23
-115 47 -121 52 -6 5 -14 6 -17 3 -3 -4 -11 5 -18 19 -11 25 -73 58 -229 123
-74 30 -206 77 -189 67z"/>
<path d="M56717 46919 c-9 -10 -33 -21 -54 -24 -21 -3 -52 -8 -69 -11 -24 -3
-35 -12 -44 -34 -12 -30 -27 -35 -87 -30 -17 1 -27 -8 -39 -34 -16 -33 -21
-35 -88 -46 -97 -16 -96 -16 -109 -50 -11 -28 -14 -30 -67 -30 -47 0 -56 -3
-56 -18 0 -17 5 -18 39 -10 21 4 42 6 46 4 19 -12 131 -8 147 5 9 7 25 14 37
16 11 2 26 12 33 22 8 11 31 20 61 24 26 3 68 15 93 26 25 11 55 21 67 21 18
0 22 8 28 50 l7 50 39 0 c32 0 41 4 48 23 5 12 6 26 4 31 -3 4 0 12 7 16 8 5
6 9 -8 12 -12 3 -26 -2 -35 -13z"/>
<path d="M61850 46605 c0 -33 -5 -87 -11 -120 -6 -33 -13 -85 -15 -115 -2 -30
-7 -89 -10 -130 -3 -41 -8 -105 -11 -142 l-5 -68 32 0 32 0 -6 -97 c-3 -54 -9
-137 -12 -186 -4 -60 -2 -92 6 -101 14 -18 5 -78 -18 -123 -13 -26 -14 -35 -4
-45 9 -9 12 -8 12 6 0 9 4 15 9 12 5 -3 16 16 26 42 10 26 24 51 32 55 7 4 13
15 13 23 0 20 24 44 43 44 15 0 32 61 25 91 -2 9 4 13 19 11 14 -2 23 3 27 15
11 38 27 213 31 340 3 111 2 132 -11 137 -23 9 -32 0 -46 -45 -16 -55 -78 -96
-78 -52 0 9 -7 24 -15 33 -21 23 -24 59 -10 100 11 32 10 39 -7 60 -16 19 -18
33 -13 75 6 41 3 55 -10 69 -13 12 -16 26 -11 54 10 53 8 94 -4 106 -7 7 -10
-9 -10 -49z m80 -505 c0 -16 -2 -30 -4 -30 -2 0 -6 14 -8 30 -3 17 -1 30 4 30
4 0 8 -13 8 -30z m-100 -50 c0 -5 -4 -10 -10 -10 -5 0 -10 5 -10 10 0 6 5 10
10 10 6 0 10 -4 10 -10z m149 -199 l-1 -36 -8 30 c-4 17 -11 39 -16 50 -7 18
-6 18 9 6 11 -8 17 -27 16 -50z"/>
<path d="M55970 46570 c0 -35 1 -35 -45 -13 -35 17 -36 17 -60 -8 -29 -28 -49
-85 -34 -95 12 -7 73 2 112 18 20 8 27 17 27 38 0 28 18 43 52 44 26 1 17 21
-9 21 -13 -1 -23 5 -23 12 0 7 -4 13 -10 13 -5 0 -10 -13 -10 -30z"/>
<path d="M8188 46518 c5 -5 16 -8 23 -6 8 3 3 7 -10 11 -17 4 -21 3 -13 -5z"/>
<path d="M8324 46476 c-3 -14 -1 -33 5 -43 8 -15 10 -10 11 25 0 47 -6 55 -16
18z"/>
<path d="M8384 46416 c-3 -9 -11 -13 -18 -9 -8 4 -8 3 0 -6 18 -19 85 -26 95
-10 8 12 10 12 18 0 9 -13 31 -7 31 9 0 11 -18 17 -74 25 -37 6 -47 4 -52 -9z"/>
<path d="M55698 46393 c7 -3 16 -2 19 1 4 3 -2 6 -13 5 -11 0 -14 -3 -6 -6z"/>
<path d="M8650 46319 c-19 -3 -28 -7 -20 -8 8 -2 25 -4 37 -7 12 -2 25 0 28 5
8 15 -6 18 -45 10z"/>
<path d="M8722 46289 c7 -22 34 -32 64 -24 26 6 27 8 9 15 -47 17 -77 21 -73
9z"/>
<path d="M8992 46175 c11 -11 58 -15 58 -5 0 5 -14 10 -32 10 -17 0 -29 -2
-26 -5z"/>
<path d="M2180 46125 c0 -14 2 -25 4 -25 2 0 6 11 8 25 3 14 1 25 -3 25 -5 0
-9 -11 -9 -25z"/>
<path d="M9150 46120 c-18 -4 -26 -14 -28 -34 -3 -26 -2 -27 40 -24 31 2 44 8
46 21 2 10 -3 17 -12 17 -8 0 -16 6 -18 13 -2 9 -12 11 -28 7z"/>
<path d="M2207 46058 c-4 -30 -2 -57 3 -62 7 -7 10 12 10 52 0 34 -2 62 -4 62
-2 0 -6 -23 -9 -52z"/>
<path d="M9236 46083 c-11 -11 -6 -23 9 -23 8 0 15 4 15 9 0 13 -16 22 -24 14z"/>
<path d="M54805 46074 c-22 -8 -55 -30 -73 -48 -29 -30 -40 -35 -95 -39 -133
-10 -199 -34 -217 -78 -12 -28 -15 -29 -77 -29 -64 0 -64 0 -61 -27 3 -27 5
-28 64 -27 33 0 95 7 138 14 73 14 77 15 74 40 -3 23 1 25 39 28 29 2 47 10
57 23 11 16 29 22 78 26 34 2 72 9 83 14 11 4 40 10 64 11 25 2 46 9 49 16 2
6 -3 12 -12 12 -10 0 -16 12 -18 38 -3 31 -7 37 -28 39 -14 1 -43 -5 -65 -13z
m75 -24 c0 -5 -4 -10 -10 -10 -5 0 -10 5 -10 10 0 6 5 10 10 10 6 0 10 -4 10
-10z"/>
<path d="M2232 45890 c0 -19 2 -27 5 -17 2 9 2 25 0 35 -3 9 -5 1 -5 -18z"/>
<path d="M2230 45810 c0 -52 13 -82 24 -55 10 28 7 60 -9 81 -13 18 -14 16
-15 -26z"/>
<path d="M2281 45603 c1 -10 5 -29 9 -43 7 -22 8 -21 9 12 1 20 -3 40 -9 43
-5 3 -10 -2 -9 -12z"/>
<path d="M2292 45510 c0 -14 2 -19 5 -12 2 6 2 18 0 25 -3 6 -5 1 -5 -13z"/>
<path d="M61802 45438 c-6 -18 -10 -46 -10 -63 -1 -16 -5 -49 -10 -72 -6 -24
-6 -40 -1 -37 5 3 9 14 9 25 0 12 10 23 25 29 25 10 34 35 14 42 -14 5 0 38
17 38 22 0 16 27 -7 33 -12 3 -18 10 -15 16 4 5 2 12 -3 15 -5 4 -14 -8 -19
-26z"/>
<path d="M61869 45365 c-6 -40 -4 -53 7 -43 3 3 4 23 2 44 l-3 39 -6 -40z"/>
<path d="M59223 45354 c-25 -9 -61 -36 -92 -69 -47 -49 -122 -95 -157 -95 -8
0 -14 -5 -14 -11 0 -5 -4 -8 -9 -5 -5 3 -22 -1 -37 -9 -16 -8 -39 -15 -51 -15
-12 0 -25 -5 -29 -11 -4 -7 8 -10 36 -8 51 4 65 -13 49 -60 -9 -24 -18 -32
-47 -37 -21 -4 -44 -10 -52 -14 -8 -4 -30 -10 -47 -13 l-33 -6 0 43 c0 37 4
45 28 56 15 7 22 15 15 17 -22 8 -101 -36 -130 -74 l-30 -37 31 -15 c39 -20
44 -50 13 -87 -46 -56 -38 -90 11 -44 12 11 26 20 32 20 5 0 10 7 10 15 0 10
10 15 33 15 20 1 97 34 212 93 165 84 180 94 185 122 5 29 7 30 69 33 62 3 63
2 57 -20 -3 -13 -6 -26 -6 -30 0 -5 -11 -8 -25 -8 l-25 0 0 -205 0 -205 -35 0
-35 0 0 -57 c0 -32 -5 -120 -11 -198 -8 -105 -16 -148 -30 -171 -17 -28 -19
-53 -19 -208 l0 -176 -30 0 -30 0 0 -94 c0 -52 4 -98 10 -101 5 -3 19 -1 30 5
16 9 18 15 10 30 -5 10 -10 28 -10 40 0 19 4 21 34 17 39 -5 56 7 56 39 0 13
5 26 10 29 8 5 7 11 -1 21 -10 12 -10 15 2 12 10 -2 19 36 37 177 12 99 27
205 31 235 5 30 6 67 4 83 -4 16 -1 27 6 27 6 0 11 9 11 21 0 11 -4 18 -9 14
-5 -3 -13 0 -17 6 -4 6 0 15 8 20 27 15 55 123 49 191 -1 15 4 37 12 50 9 15
15 54 16 107 1 46 4 88 8 94 3 6 5 51 4 100 -2 87 15 197 29 197 13 0 3 82
-11 91 -8 4 -14 12 -15 16 0 4 -6 20 -12 36 -13 31 -34 33 -99 11z m84 -50
c-3 -3 -12 -4 -19 -1 -8 3 -5 6 6 6 11 1 17 -2 13 -5z m-190 -132 c3 -13 3
-26 -1 -29 -12 -12 -86 -14 -86 -3 0 6 5 8 12 4 7 -5 9 -2 5 9 -3 9 0 18 9 21
8 3 14 15 14 26 0 18 2 19 20 8 12 -7 23 -23 27 -36z m47 -1204 c5 -32 4 -48
-3 -48 -7 0 -11 22 -11 52 0 62 5 60 14 -4z"/>
<path d="M4807 45310 c-3 -11 1 -44 9 -73 17 -65 17 -62 -3 -46 -15 12 -16 12
-10 -4 4 -10 7 -61 7 -114 l0 -95 28 3 c59 7 71 -41 22 -84 -27 -25 -30 -33
-30 -87 l0 -60 36 0 36 0 -5 -47 c-11 -96 -19 -148 -27 -163 -17 -33 -21 -228
-7 -379 13 -140 12 -187 -7 -232 -9 -21 43 -47 55 -27 5 7 9 18 9 24 0 15 29
22 68 16 25 -3 30 -7 22 -17 -6 -7 -15 -86 -22 -175 l-12 -163 33 -28 c18 -14
33 -33 35 -40 1 -8 8 -24 15 -37 10 -19 19 -23 49 -20 l37 3 3 70 c2 51 -8
126 -38 274 -76 380 -129 696 -145 851 -4 36 -14 112 -23 170 -15 98 -21 244
-10 255 8 8 50 7 136 -6 80 -11 82 -12 82 -40 0 -32 16 -47 33 -30 17 17 24
13 31 -14 6 -23 11 -25 66 -25 60 0 60 0 60 -30 0 -28 2 -30 40 -30 47 0 49 5
14 32 -20 17 -24 27 -21 54 3 19 1 37 -4 40 -5 3 -9 15 -9 28 0 28 -18 46 -46
46 -37 0 -54 -11 -54 -35 0 -13 -4 -27 -10 -30 -5 -3 -10 -1 -10 5 0 6 -4 9
-9 6 -13 -8 -20 16 -14 47 l5 27 -73 1 c-52 1 -67 3 -49 9 21 7 22 8 5 9 -11
1 -25 11 -30 23 -6 12 -21 25 -35 28 -14 3 -32 18 -40 33 -14 26 -13 29 3 42
17 12 14 14 -29 21 -27 4 -54 13 -62 20 -7 8 -33 14 -57 14 -34 0 -44 -4 -48
-20z"/>
<path d="M4761 45247 c1 -21 3 -25 6 -12 3 11 10 23 15 26 5 3 3 9 -6 12 -13
5 -16 0 -15 -26z"/>
<path d="M4790 45230 c0 -5 5 -10 10 -10 6 0 10 5 10 10 0 6 -4 10 -10 10 -5
0 -10 -4 -10 -10z"/>
<path d="M61945 45233 c-56 -6 -75 -13 -75 -28 0 -11 11 -15 36 -15 33 0 36
-2 29 -22 -4 -13 -8 -66 -10 -118 -7 -175 -16 -285 -27 -297 -6 -7 -26 -13
-45 -13 -29 0 -36 -5 -46 -30 -11 -28 -35 -37 -29 -11 1 6 -2 11 -8 11 -10 0
-15 -15 -29 -93 -8 -47 -8 -47 10 -31 23 20 32 14 32 -21 0 -30 6 -31 40 -5
14 11 29 20 35 20 5 0 12 -25 15 -56 3 -31 11 -62 16 -67 6 -6 11 -21 11 -34
0 -30 20 -30 21 0 3 48 6 74 13 112 4 22 11 87 16 145 5 58 16 161 25 230 18
139 23 307 9 318 -5 4 -22 6 -39 5z"/>
<path d="M4762 45165 c0 -16 2 -22 5 -12 2 9 2 23 0 30 -3 6 -5 -1 -5 -18z"/>
<path d="M59390 45145 c0 -14 -4 -25 -10 -25 -5 0 -10 8 -10 17 0 15 -2 14
-15 -3 -8 -10 -15 -30 -15 -43 0 -23 1 -23 25 -7 22 14 25 15 25 1 0 -8 5 -15
10 -15 6 0 10 23 10 50 0 28 -4 50 -10 50 -5 0 -10 -11 -10 -25z"/>
<path d="M61762 45070 c-1 -41 3 -71 11 -79 10 -11 10 -14 0 -18 -14 -5 -18
-80 -5 -101 6 -9 12 -6 20 13 6 14 16 25 22 25 6 0 10 27 10 65 0 62 -1 65
-24 65 -22 0 -25 5 -29 48 -3 40 -4 38 -5 -18z"/>
<path d="M4744 44885 c0 -60 1 -84 3 -52 2 32 2 81 0 110 -2 29 -3 3 -3 -58z"/>
<path d="M58470 44926 c-14 -7 -71 -37 -128 -66 -99 -50 -160 -95 -147 -108 3
-4 9 -2 13 3 4 6 14 11 22 11 8 1 23 5 33 9 15 6 17 1 17 -44 0 -34 4 -51 13
-51 6 -1 -7 -10 -30 -22 -24 -11 -43 -24 -43 -29 0 -5 2 -9 4 -9 13 0 74 31
91 47 11 10 30 19 43 20 24 3 241 123 242 134 0 4 -26 11 -57 15 -63 10 -76
26 -52 70 16 30 10 36 -21 20z m-147 -131 c-7 -21 -13 -19 -13 6 0 11 4 18 10
14 5 -3 7 -12 3 -20z"/>
<path d="M5535 44873 c-5 -15 -9 -34 -9 -42 -1 -16 211 -117 317 -151 63 -20
67 -23 67 -51 0 -27 3 -29 36 -29 31 0 35 2 29 21 -4 12 -8 27 -9 33 -3 23
-18 36 -42 36 -13 0 -25 5 -25 10 -1 6 -2 14 -3 19 0 5 -4 13 -8 17 -12 11 -9
54 3 54 5 0 7 5 4 10 -4 6 -10 8 -15 5 -4 -2 -20 5 -34 16 -24 19 -37 20 -124
17 l-97 -3 -5 30 c-4 25 -10 30 -41 33 -33 3 -37 0 -44 -25z"/>
<path d="M6152 44760 c0 -14 2 -19 5 -12 2 6 2 18 0 25 -3 6 -5 1 -5 -13z"/>
<path d="M58233 44743 c-7 -3 -13 -9 -13 -15 0 -6 7 -8 14 -5 11 4 13 1 9 -11
-5 -13 -3 -14 7 -5 15 13 1 42 -17 36z"/>
<path d="M58121 44698 c-9 -11 -26 -24 -38 -29 -31 -12 -29 -24 7 -39 29 -12
41 -30 20 -30 -5 0 -10 -8 -10 -17 0 -13 -3 -14 -8 -6 -6 10 -13 9 -30 -3 -33
-23 -27 -34 18 -34 38 0 40 2 40 30 0 17 5 30 11 30 6 0 9 9 6 20 -3 11 -1 17
4 14 5 -3 12 2 15 10 3 9 15 16 25 16 14 0 19 7 19 29 0 27 -3 30 -31 29 -18
-1 -39 -9 -48 -20z"/>
<path d="M6103 44583 c-18 -7 -16 -20 2 -20 8 0 15 6 15 14 0 7 -1 13 -2 12
-2 0 -9 -3 -15 -6z"/>
<path d="M6264 44578 c-3 -4 -24 -8 -47 -8 -62 0 -71 -9 -58 -58 l11 -40 73
-12 c97 -15 97 -15 97 -49 0 -25 5 -30 30 -36 16 -4 32 -11 35 -16 4 -5 33 -9
66 -9 l59 0 0 -35 c0 -32 2 -35 31 -35 30 0 31 1 26 38 -19 134 -20 134 -132
126 l-81 -7 -16 33 c-11 23 -13 42 -7 68 5 21 9 41 9 45 0 10 -90 6 -96 -5z"/>
<path d="M61731 44444 c0 -11 3 -14 6 -6 3 7 2 16 -1 19 -3 4 -6 -2 -5 -13z"/>
<path d="M57714 44442 c-48 -3 -52 -5 -58 -32 -5 -26 -10 -30 -41 -30 -23 0
-35 -5 -35 -14 0 -7 -3 -28 -6 -45 -6 -30 -5 -31 27 -31 54 0 249 124 228 144
-8 8 -62 12 -115 8z"/>
<path d="M2431 44414 c0 -11 3 -14 6 -6 3 7 2 16 -1 19 -3 4 -6 -2 -5 -13z"/>
<path d="M2280 44224 l0 -162 30 -12 30 -12 0 -189 0 -189 34 0 34 0 -2 -184
c-1 -178 0 -185 22 -208 19 -21 22 -35 22 -99 0 -129 18 -261 38 -283 10 -12
27 -42 36 -68 18 -49 32 -65 44 -53 4 3 6 119 4 256 -2 170 1 248 8 244 6 -4
10 4 10 19 0 14 -6 26 -13 26 -6 0 -23 21 -37 48 -13 26 -29 50 -35 54 -5 4
-6 8 -1 8 5 0 3 7 -4 15 -7 8 -10 25 -6 40 4 14 0 46 -9 71 -16 47 -21 149 -7
158 11 6 26 -5 40 -29 9 -16 11 -2 12 72 0 86 -2 94 -23 108 -13 8 -37 18 -55
21 -19 4 -32 13 -33 23 -7 86 -5 181 3 181 5 0 8 27 6 63 -2 46 -7 62 -17 62
-20 0 -33 50 -31 116 l1 57 -50 3 -51 4 0 -161z"/>
<path d="M61722 44325 c0 -16 2 -22 5 -12 2 9 2 23 0 30 -3 6 -5 -1 -5 -18z"/>
<path d="M2473 44260 c0 -25 2 -35 4 -22 2 12 2 32 0 45 -2 12 -4 2 -4 -23z"/>
<path d="M61701 44184 c0 -11 3 -14 6 -6 3 7 2 16 -1 19 -3 4 -6 -2 -5 -13z"/>
<path d="M61834 44169 c-5 -8 -7 -24 -5 -36 2 -19 -2 -23 -26 -23 -48 0 -50
-7 -41 -110 4 -52 6 -108 3 -125 -4 -24 -3 -26 4 -10 9 18 10 18 10 2 1 -28
-24 -47 -63 -47 -19 0 -38 -6 -42 -12 -14 -23 -13 -143 1 -199 8 -31 15 -68
15 -82 0 -31 38 -79 47 -58 3 7 13 21 23 31 23 23 90 361 109 550 9 86 8 97
-9 114 -14 14 -19 15 -26 5z"/>
<path d="M2473 44095 c0 -22 2 -30 4 -17 2 12 2 30 0 40 -3 9 -5 -1 -4 -23z"/>
<path d="M6965 44120 c-3 -5 -1 -10 4 -10 6 0 11 5 11 10 0 6 -2 10 -4 10 -3
0 -8 -4 -11 -10z"/>
<path d="M56926 44085 c-9 -20 -29 -43 -46 -53 -17 -10 -28 -23 -25 -30 3 -8
5 -20 5 -28 0 -12 4 -12 20 -4 11 6 25 8 30 5 14 -9 81 6 74 16 -3 5 4 9 15 9
10 0 21 5 23 11 2 6 19 14 38 18 23 4 36 13 39 26 2 11 8 23 15 27 6 4 -9 8
-34 8 -25 0 -54 7 -64 15 -11 8 -32 15 -48 15 -22 0 -31 -7 -42 -35z"/>
<path d="M7070 44070 c0 -5 7 -10 15 -10 8 0 15 -4 15 -10 0 -5 11 -10 25 -10
16 0 28 -7 31 -17 17 -54 42 -65 74 -33 17 17 19 24 9 43 -17 31 -28 37 -76
37 -28 0 -43 -4 -43 -12 0 -7 -5 -5 -11 5 -11 18 -39 24 -39 7z"/>
<path d="M7313 43983 c-30 -4 -33 -7 -33 -38 0 -37 -6 -34 123 -56 65 -11 67
-12 67 -40 0 -29 0 -29 60 -29 59 0 60 0 60 -29 0 -20 6 -30 20 -34 22 -6 41
18 39 50 -1 30 -34 78 -55 78 -11 0 -20 8 -22 20 -7 34 -23 45 -69 45 -24 0
-58 6 -76 13 -44 19 -76 24 -114 20z"/>
<path d="M7238 43973 c7 -3 16 -2 19 1 4 3 -2 6 -13 5 -11 0 -14 -3 -6 -6z"/>
<path d="M61605 43732 c-11 -11 -4 -22 15 -22 11 0 20 6 20 13 0 13 -25 19
-35 9z"/>
<path d="M8112 43568 c6 -16 118 -32 132 -18 14 14 8 17 -67 24 -54 5 -68 4
-65 -6z"/>
<path d="M55862 43555 c-12 -14 -28 -25 -36 -25 -23 0 -27 -29 -5 -51 21 -21
39 -18 39 7 0 8 10 14 23 14 16 0 18 -3 8 -9 -9 -6 -10 -11 -2 -15 19 -12 31
4 31 40 0 32 2 34 35 35 19 1 40 3 45 4 6 1 18 3 28 4 13 1 14 3 4 10 -7 4
-44 9 -81 9 -61 1 -70 -1 -89 -23z"/>
<path d="M59047 43563 c-5 -7 -17 -13 -28 -13 -10 0 -19 -7 -19 -15 0 -8 9
-15 20 -15 16 0 20 -7 20 -32 0 -23 3 -29 11 -21 5 5 9 32 7 59 -2 30 -6 44
-11 37z"/>
<path d="M8325 43535 c-23 -11 -26 -14 -10 -15 11 0 26 -9 33 -20 8 -14 23
-20 48 -20 21 0 33 4 29 10 -3 6 -15 10 -26 10 -10 0 -19 5 -19 11 0 5 5 7 10
4 6 -3 10 -2 10 4 0 9 -33 33 -42 30 -2 0 -16 -7 -33 -14z"/>
<path d="M4991 43482 c-1 -26 3 -41 9 -37 6 4 11 -13 11 -42 1 -30 4 -37 6
-20 2 15 8 25 11 23 4 -2 7 13 7 34 0 24 -4 36 -11 33 -7 -2 -17 8 -22 24 -10
27 -10 26 -11 -15z"/>
<path d="M8280 43495 c-10 -12 -7 -15 14 -21 38 -9 62 2 46 21 -16 19 -44 19
-60 0z"/>
<path d="M8437 43439 c4 -13 8 -18 11 -10 2 7 -1 18 -6 23 -8 8 -9 4 -5 -13z"/>
<path d="M55650 43445 c-7 -8 -20 -15 -29 -15 -9 0 -34 -9 -56 -20 -22 -11
-48 -20 -60 -20 -22 0 -91 -23 -101 -33 -4 -4 -22 -7 -40 -7 -18 0 -43 -4 -56
-9 -13 -5 -35 -12 -49 -15 -20 -4 -28 -13 -31 -36 -5 -30 -4 -30 43 -30 26 0
50 4 53 9 3 5 15 7 25 4 44 -11 401 119 409 149 2 10 13 18 23 18 11 0 19 5
19 10 0 13 -16 13 -40 0 -13 -7 -21 -7 -25 0 -10 15 -71 12 -85 -5z"/>
<path d="M58975 43440 c-3 -5 3 -10 15 -10 12 0 18 -4 15 -10 -3 -5 -16 -10
-28 -10 -17 0 -28 -14 -50 -64 -23 -51 -31 -89 -39 -182 -7 -80 -16 -129 -28
-149 -10 -16 -23 -70 -30 -120 -6 -49 -20 -106 -31 -126 -10 -20 -25 -80 -33
-133 -9 -56 -22 -106 -30 -115 -13 -14 -16 -44 -16 -144 l0 -127 -30 0 -30 0
0 -125 0 -125 -30 0 c-28 0 -30 -3 -30 -36 0 -31 2 -35 15 -24 8 7 15 19 15
26 0 8 6 14 14 14 21 0 46 28 46 52 0 25 27 86 50 113 10 11 20 32 24 47 3 15
11 40 17 55 15 37 19 63 22 158 2 60 8 90 25 120 41 76 112 238 112 257 0 11
6 29 12 41 8 14 13 71 13 162 0 135 1 140 21 143 18 3 22 12 29 70 16 153 20
212 13 212 -13 0 -9 28 5 33 6 3 -2 6 -20 6 -17 1 -35 -3 -38 -9z"/>
<path d="M61537 43389 c-9 -29 -15 -55 -13 -57 2 -1 13 16 25 38 14 28 18 46
12 57 -6 12 -12 4 -24 -38z"/>
<path d="M2558 43373 c7 -3 16 -2 19 1 4 3 -2 6 -13 5 -11 0 -14 -3 -6 -6z"/>
<path d="M2604 43372 c2 -4 7 -56 10 -116 4 -60 9 -113 12 -118 15 -24 23 23
17 95 -5 60 -3 81 7 87 11 7 10 13 -4 34 -9 14 -23 26 -32 26 -8 0 -13 -4 -10
-8z"/>
<path d="M61665 43348 c-2 -7 -11 -35 -19 -63 -22 -78 -42 -117 -80 -159 -46
-51 -46 -66 -1 -66 l35 0 2 -92 c3 -196 3 -193 -19 -196 -15 -2 -26 -17 -37
-52 -9 -27 -16 -58 -16 -69 0 -17 -6 -21 -35 -21 -30 0 -35 -3 -35 -24 0 -25
22 -51 33 -39 4 3 7 -39 7 -95 0 -83 3 -102 15 -102 8 0 18 12 21 28 4 15 24
93 45 174 36 137 40 178 17 178 -5 0 -6 5 -3 10 4 6 10 8 15 5 4 -3 26 70 48
163 38 155 47 199 56 277 2 17 7 51 11 76 6 41 4 48 -16 63 -28 19 -38 20 -44
4z"/>
<path d="M5023 43270 c0 -25 2 -35 4 -22 2 12 2 32 0 45 -2 12 -4 2 -4 -23z"/>
<path d="M61553 43215 c0 -22 2 -30 4 -17 2 12 2 30 0 40 -3 9 -5 -1 -4 -23z"/>
<path d="M5062 43105 c0 -16 2 -22 5 -12 2 9 2 23 0 30 -3 6 -5 -1 -5 -18z"/>
<path d="M17427 43063 c-13 -13 -7 -20 18 -20 28 0 33 12 9 21 -19 7 -19 7
-27 -1z"/>
<path d="M17488 43033 c6 -2 18 -2 25 0 6 3 1 5 -13 5 -14 0 -19 -2 -12 -5z"/>
<path d="M17495 43000 c-4 -6 13 -10 45 -10 32 0 49 4 45 10 -3 6 -24 10 -45
10 -21 0 -42 -4 -45 -10z"/>
<path d="M61466 42856 c-3 -13 -9 -32 -13 -43 -6 -17 -5 -17 15 1 12 11 22 30
22 43 0 30 -16 30 -24 -1z"/>
<path d="M5061 42844 c0 -11 3 -14 6 -6 3 7 2 16 -1 19 -3 4 -6 -2 -5 -13z"/>
<path d="M17970 42802 c0 -40 1 -41 65 -71 79 -38 89 -38 132 -5 27 21 32 29
22 40 -6 8 -19 14 -28 14 -9 0 -27 8 -40 17 -14 9 -45 20 -70 24 -25 4 -54 10
-63 14 -15 6 -18 1 -18 -33z"/>
<path d="M2532 42666 c2 -41 6 -72 10 -70 8 5 28 -61 28 -96 1 -48 39 -206 80
-330 32 -96 130 -477 130 -505 0 -3 13 -5 29 -5 l30 0 3 -112 c3 -86 10 -137
32 -213 15 -55 33 -106 39 -113 17 -21 37 13 37 60 0 22 6 51 13 66 13 26 14
142 2 162 -4 6 -17 10 -30 10 -17 0 -23 4 -19 15 3 8 -1 24 -9 36 -12 16 -13
27 -5 44 8 19 6 33 -12 70 -12 25 -20 54 -17 64 2 10 0 27 -6 37 -6 10 -10 47
-8 80 2 37 -2 64 -8 68 -6 4 -11 39 -11 81 0 72 -12 110 -48 154 -65 79 -95
176 -73 236 7 19 9 41 4 47 -5 9 -10 3 -15 -17 -4 -16 -5 7 -2 53 l4 82 -37 1
-38 2 35 7 35 7 -32 2 c-36 1 -47 21 -41 74 2 26 -2 34 -24 45 -16 7 -28 17
-28 23 0 5 -12 9 -26 9 -25 0 -25 0 -22 -74z m165 -138 c-3 -7 -5 -2 -5 12 0
14 2 19 5 13 2 -7 2 -19 0 -25z"/>
<path d="M61440 42706 c0 -9 5 -16 10 -16 6 0 10 4 10 9 0 6 -4 13 -10 16 -5
3 -10 -1 -10 -9z"/>
<path d="M5312 42638 c-13 -38 -33 -170 -26 -177 2 -3 10 1 16 7 7 7 17 12 24
12 14 0 57 -97 49 -110 -4 -6 -4 -19 0 -30 6 -19 6 -19 27 2 19 19 20 25 9
105 -6 47 -15 91 -20 97 -5 6 -11 25 -14 43 -5 29 -35 82 -47 83 -4 0 -11 -15
-18 -32z"/>
<path d="M61445 42232 c-67 -6 -95 -13 -95 -27 0 -7 -6 -20 -12 -27 -21 -23
-34 -50 -52 -113 -10 -33 -21 -69 -25 -80 -4 -11 -6 -28 -3 -37 6 -28 31 -9
38 28 4 24 12 34 25 34 14 0 19 -8 20 -32 1 -18 3 -66 4 -106 2 -72 16 -106
34 -86 24 24 98 314 86 334 -3 4 0 21 6 38 6 17 9 41 7 54 -2 19 -8 23 -33 20z"/>
<path d="M2914 42005 c-19 -21 -20 -25 -5 -28 11 -3 8 -5 -6 -6 -15 -1 -23 5
-24 17 0 11 -2 12 -6 4 -8 -21 18 -74 33 -68 10 4 14 -3 14 -19 0 -35 19 -31
27 5 6 33 22 41 24 13 1 -10 5 -2 9 17 5 19 6 47 3 63 -7 35 -40 36 -69 2z"/>
<path d="M5505 41980 c-3 -5 -3 -82 1 -172 6 -157 16 -216 34 -188 5 7 6 18 4
25 -3 6 11 15 33 21 l38 9 -2 50 c-2 28 -14 93 -28 145 -21 78 -31 97 -51 107
-13 6 -26 7 -29 3z"/>
<path d="M2961 41872 c-6 -12 -11 -30 -11 -41 0 -12 -7 -21 -15 -21 -8 0 -15
-4 -15 -10 0 -5 6 -10 14 -10 11 0 13 -17 9 -80 -3 -53 -1 -80 6 -80 7 0 11
32 11 88 0 48 5 104 11 125 12 44 6 59 -10 29z"/>
<path d="M61237 41884 c-4 -4 -7 -14 -7 -23 0 -11 3 -12 11 -4 6 6 10 16 7 23
-2 6 -7 8 -11 4z"/>
<path d="M58596 41683 c-4 -9 -2 -21 4 -27 7 -7 10 -2 10 17 0 31 -5 34 -14
10z"/>
<path d="M58542 41655 c6 -14 13 -24 14 -22 6 6 -9 47 -17 47 -5 0 -3 -11 3
-25z"/>
<path d="M58498 41653 c6 -2 18 -2 25 0 6 3 1 5 -13 5 -14 0 -19 -2 -12 -5z"/>
<path d="M61181 41644 c0 -11 3 -14 6 -6 3 7 2 16 -1 19 -3 4 -6 -2 -5 -13z"/>
<path d="M58493 41591 c2 -10 0 -47 -7 -81 -10 -59 -13 -63 -46 -74 -31 -10
-37 -18 -58 -75 -12 -35 -27 -94 -32 -129 -8 -57 -7 -67 8 -80 15 -12 15 -13
1 -9 -14 5 -16 -2 -15 -36 1 -40 0 -42 -31 -45 -25 -3 -34 -9 -42 -34 -8 -22
-8 -35 0 -44 9 -11 8 -14 -4 -14 -10 0 -24 -26 -41 -78 -30 -90 -31 -92 -11
-92 8 0 15 -4 15 -10 0 -5 7 -10 15 -10 8 0 15 7 15 16 0 8 16 32 35 52 19 20
35 44 35 53 0 8 12 44 26 80 16 42 23 75 20 97 -3 18 0 32 5 32 16 0 85 159
93 213 4 26 11 47 16 47 5 0 14 26 21 58 9 37 21 63 36 75 30 24 31 57 2 57
-17 0 -20 5 -17 25 5 21 1 25 -20 25 -19 0 -23 -4 -19 -19z"/>
<path d="M5620 41556 c0 -14 -5 -37 -10 -52 -14 -35 -4 -62 23 -66 25 -3 27
-27 6 -95 -7 -23 -11 -44 -8 -46 2 -3 28 -7 57 -9 l54 -5 -5 46 c-10 104 -56
219 -98 241 -16 9 -19 7 -19 -14z"/>
<path d="M61247 41523 c-3 -5 -8 -22 -11 -40 -7 -32 -67 -89 -80 -75 -10 9
-26 -18 -26 -43 0 -12 5 -26 12 -33 17 -17 38 -82 38 -122 0 -41 11 -62 26
-52 6 4 29 77 53 162 23 85 44 162 47 171 3 10 -5 20 -21 27 -31 14 -32 14
-38 5z"/>
<path d="M3123 41214 c-3 -8 0 -21 7 -27 10 -9 11 -9 5 3 -8 13 -7 13 10 0 17
-14 17 -15 -11 -20 -27 -5 -29 -8 -28 -50 1 -41 13 -88 35 -132 5 -10 9 -26 9
-37 0 -11 9 -40 20 -65 16 -38 24 -46 46 -46 l27 0 -5 143 c-4 126 -7 148 -26
179 -12 19 -22 43 -22 52 0 22 -58 22 -67 0z"/>
<path d="M5742 41140 c-7 -11 -18 -20 -26 -20 -15 0 -26 -21 -26 -50 0 -23 34
-43 59 -35 13 4 21 -3 32 -27 12 -28 19 -33 47 -31 18 0 36 4 39 7 9 9 -40
114 -69 146 -32 35 -39 37 -56 10z"/>
<path d="M2990 41011 c0 -11 9 -23 20 -26 18 -6 20 -15 20 -86 l0 -79 30 0 30
0 0 -96 c0 -72 3 -95 13 -92 8 3 13 40 15 128 2 106 0 131 -18 175 -28 69
-110 125 -110 76z"/>
<path d="M60936 40904 c-5 -14 -4 -15 9 -4 17 14 19 20 6 20 -5 0 -12 -7 -15
-16z"/>
<path d="M3236 40775 c4 -8 8 -15 10 -15 2 0 4 7 4 15 0 8 -4 15 -10 15 -5 0
-7 -7 -4 -15z"/>
<path d="M60863 40706 c-19 -22 -53 -94 -53 -113 0 -10 -7 -38 -16 -63 -43
-121 -65 -340 -34 -340 4 0 13 19 20 41 8 23 27 61 42 86 15 24 28 53 28 63 0
11 5 20 10 20 6 0 10 -20 10 -45 0 -48 22 -115 38 -115 11 0 26 30 23 44 -1 4
7 32 19 62 16 44 50 245 50 300 0 9 10 14 30 14 20 0 30 5 30 15 0 10 -10 15
-28 15 -25 0 -33 -8 -56 -55 -51 -101 -73 -98 -78 9 -3 69 -13 87 -35 62z"/>
<path d="M58144 40626 c-3 -14 -4 -40 -1 -60 3 -19 1 -36 -5 -38 -10 -4 -39
-81 -32 -87 2 -3 10 1 16 7 7 7 20 12 29 12 22 0 29 20 29 88 0 91 -21 136
-36 78z"/>
<path d="M5971 40614 c0 -11 3 -14 6 -6 3 7 2 16 -1 19 -3 4 -6 -2 -5 -13z"/>
<path d="M3160 40610 c0 -5 5 -10 11 -10 5 0 7 5 4 10 -3 6 -8 10 -11 10 -2 0
-4 -4 -4 -10z"/>
<path d="M3166 40447 c-5 -15 -6 -31 -2 -34 11 -11 18 5 14 34 l-4 28 -8 -28z"/>
<path d="M58031 40348 c1 -35 4 -69 7 -75 7 -21 25 -14 19 7 -3 11 -1 20 4 20
9 0 49 82 49 101 0 5 -18 9 -41 9 l-40 0 2 -62z"/>
<path d="M3283 40313 c-7 -3 -13 -12 -13 -21 0 -15 2 -15 11 -2 9 12 10 11 6
-7 -3 -13 -1 -23 5 -23 5 0 6 -4 3 -10 -3 -5 3 -10 14 -10 22 0 28 14 11 25
-6 4 -8 9 -6 13 7 12 -18 39 -31 35z"/>
<path d="M57977 40184 c-3 -32 -4 -60 -3 -62 4 -3 46 80 46 92 0 4 -4 5 -9 1
-6 -3 -14 2 -19 11 -7 12 -11 0 -15 -42z"/>
<path d="M3315 40200 c-10 -16 6 -80 20 -80 8 0 15 -8 17 -17 3 -10 7 0 9 21
4 29 1 44 -12 57 -10 10 -15 20 -11 23 3 3 0 6 -6 6 -6 0 -14 -4 -17 -10z"/>
<path d="M57914 40085 c-2 -5 -5 -32 -6 -60 -3 -49 -4 -50 -37 -53 l-34 -3 6
-60 c5 -62 2 -67 -50 -60 -15 2 -16 -15 -7 -82 6 -45 24 -56 24 -15 0 11 8 22
19 25 12 3 21 17 24 36 3 18 10 45 16 61 10 24 16 28 40 24 29 -4 29 -4 35 56
4 34 9 79 12 101 5 37 4 41 -16 41 -12 0 -24 -5 -26 -11z"/>
<path d="M3334 40036 c-10 -43 23 -172 69 -266 46 -92 57 -90 57 10 0 64 -7
104 -31 181 -30 95 -33 99 -60 99 -22 0 -30 -6 -35 -24z"/>
<path d="M60761 39977 c-18 -39 -35 -85 -36 -102 -2 -16 -3 -36 -4 -42 -1 -9
-21 -13 -66 -13 -36 0 -65 -2 -65 -5 0 -3 9 -24 21 -47 11 -22 19 -49 16 -59
-3 -9 3 -26 12 -36 10 -10 16 -24 13 -32 -3 -9 3 -8 21 4 14 9 29 16 34 15 4
-1 32 56 62 127 40 94 56 146 61 196 5 63 5 67 -15 67 -15 0 -28 -18 -54 -73z"/>
<path d="M3495 39990 c-3 -5 -1 -10 4 -10 6 0 11 5 11 10 0 6 -2 10 -4 10 -3
0 -8 -4 -11 -10z"/>
<path d="M6281 39801 c-21 -14 -8 -111 19 -132 15 -13 19 -27 18 -61 -2 -50
18 -108 37 -108 8 0 16 -8 18 -17 4 -17 5 -17 6 0 0 9 7 17 15 17 31 0 35 124
6 177 -11 21 -20 49 -20 64 0 47 -61 84 -99 60z"/>
<path d="M3611 39774 c0 -11 3 -14 6 -6 3 7 2 16 -1 19 -3 4 -6 -2 -5 -13z"/>
<path d="M57760 39660 c0 -5 5 -10 10 -10 6 0 10 5 10 10 0 6 -4 10 -10 10 -5
0 -10 -4 -10 -10z"/>
<path d="M57781 39594 c0 -11 3 -14 6 -6 3 7 2 16 -1 19 -3 4 -6 -2 -5 -13z"/>
<path d="M57672 39478 c6 -18 28 -21 28 -4 0 9 -7 16 -16 16 -9 0 -14 -5 -12
-12z"/>
<path d="M60475 39440 c4 -6 11 -8 16 -5 14 9 11 15 -7 15 -8 0 -12 -5 -9 -10z"/>
<path d="M60420 39400 c-19 -16 -45 -38 -58 -50 -12 -11 -30 -20 -38 -20 -9 0
-14 -6 -11 -12 6 -18 -12 -50 -24 -43 -5 4 -9 1 -9 -4 0 -6 5 -11 11 -11 6 0
2 -8 -10 -17 -20 -16 -22 -29 -24 -131 -1 -62 -3 -108 -5 -102 -7 21 -22 -2
-22 -36 0 -20 -5 -44 -10 -55 -10 -17 -7 -19 30 -19 35 0 40 -3 40 -23 0 -22
-27 -57 -44 -57 -10 0 -54 -52 -62 -73 -3 -11 2 -24 15 -35 l21 -17 -20 -65
c-11 -36 -20 -72 -20 -81 0 -9 -11 -41 -24 -72 -23 -50 -30 -97 -16 -97 36 1
90 121 105 232 6 44 8 47 37 50 34 3 40 13 104 193 56 154 88 231 101 241 17
14 17 24 -1 24 -8 0 -17 -7 -20 -16 -5 -12 -13 -14 -33 -9 -16 4 -31 12 -35
18 -6 9 -8 8 -8 -1 0 -10 -3 -10 -15 2 -17 16 -21 91 -5 101 6 4 7 -1 3 -11
-4 -11 -3 -15 4 -11 6 4 14 1 16 -5 3 -7 6 15 6 50 1 58 2 62 25 62 19 0 22 4
19 24 -5 25 -27 41 -44 30 -5 -3 -9 -1 -9 4 0 9 29 22 55 26 6 0 10 6 10 11 0
6 4 16 8 23 14 21 -6 13 -43 -18z"/>
<path d="M57513 39250 c-9 -30 -18 -61 -20 -67 -3 -8 4 -13 20 -13 23 0 26 4
29 43 3 38 6 42 31 45 15 2 27 8 27 13 0 6 5 7 10 4 6 -3 10 -2 10 4 0 16 -35
31 -65 29 -22 -2 -28 -10 -42 -58z"/>
<path d="M60418 39263 c7 -3 16 -2 19 1 4 3 -2 6 -13 5 -11 0 -14 -3 -6 -6z"/>
<path d="M60417 39224 c-7 -8 4 -44 14 -44 12 0 12 37 0 44 -4 3 -11 3 -14 0z"/>
<path d="M6378 39143 c12 -2 32 -2 45 0 12 2 2 4 -23 4 -25 0 -35 -2 -22 -4z"/>
<path d="M57493 39143 c9 -2 25 -2 35 0 9 3 1 5 -18 5 -19 0 -27 -2 -17 -5z"/>
<path d="M6653 39114 c-10 -27 4 -158 21 -189 9 -18 16 -54 16 -87 0 -53 2
-58 23 -58 29 0 53 -15 38 -24 -6 -4 -11 -18 -11 -31 0 -38 23 -125 32 -125
15 0 38 -27 38 -44 0 -9 8 -16 20 -16 15 0 20 -7 20 -29 0 -25 5 -31 31 -36
17 -4 33 -13 35 -20 3 -7 15 -11 27 -8 22 4 22 4 3 -11 -19 -16 -19 -16 2 -16
12 0 22 -6 23 -12 1 -7 5 6 10 29 9 48 -11 125 -71 283 -35 90 -42 100 -77
100 -19 0 -23 6 -23 30 0 26 -3 30 -29 30 -27 0 -28 2 -34 63 -7 75 -15 97
-33 97 -9 0 -14 11 -14 29 0 16 -3 36 -6 45 -8 20 -33 21 -41 0z"/>
<path d="M6510 39064 c0 -8 5 -12 10 -9 6 4 8 11 5 16 -9 14 -15 11 -15 -7z"/>
<path d="M57374 38936 c-21 -88 -32 -116 -46 -119 -11 -3 -18 -14 -18 -31 0
-22 4 -26 29 -26 30 0 95 55 85 71 -3 5 2 19 10 31 8 13 18 50 21 84 8 68 -4
104 -34 104 -16 0 -24 -19 -47 -114z"/>
<path d="M30767 38681 c-4 -49 -11 -101 -17 -115 -5 -15 -10 -53 -9 -84 1 -57
1 -57 12 -22 l11 35 4 -28 c2 -17 -3 -36 -12 -46 -9 -10 -16 -22 -16 -28 0 -6
-7 -14 -16 -17 -12 -4 -15 -2 -10 9 3 8 2 15 -3 15 -19 0 -21 -83 -15 -589 3
-289 9 -953 14 -1476 10 -1031 24 -1366 55 -1358 7 2 11 506 13 1414 1 775 -2
1408 -6 1405 -5 -3 -9 8 -10 25 0 16 4 27 9 24 5 -4 9 174 9 459 0 256 -2 466
-4 466 -1 0 -6 -40 -9 -89z m3 -303 c-1 -28 -2 -30 -11 -15 -6 10 -8 25 -5 33
9 24 16 16 16 -18z m-3 -60 c-3 -8 -6 -5 -6 6 -1 11 2 17 5 13 3 -3 4 -12 1
-19z m3 -238 c0 -140 -4 -220 -10 -220 -6 0 -10 80 -10 220 0 140 4 220 10
220 6 0 10 -80 10 -220z m-63 108 c-3 -7 -5 -2 -5 12 0 14 2 19 5 13 2 -7 2
-19 0 -25z m10 -120 c-2 -18 -4 -6 -4 27 0 33 2 48 4 33 2 -15 2 -42 0 -60z"/>
<path d="M6626 38711 c-8 -13 26 -71 42 -71 6 0 12 -4 12 -8 0 -4 10 -8 23 -9
l22 -1 -22 10 c-13 6 -23 19 -23 30 0 10 -4 18 -9 18 -5 0 -11 9 -14 20 -5 21
-22 27 -31 11z"/>
<path d="M6780 38463 c1 -18 18 -35 24 -24 4 6 4 16 1 21 -7 12 -25 13 -25 3z"/>
<path d="M6830 38450 c0 -6 7 -10 15 -10 8 0 15 2 15 4 0 2 -7 6 -15 10 -8 3
-15 1 -15 -4z"/>
<path d="M7043 38366 c3 -8 -7 -28 -24 -45 -21 -22 -29 -41 -29 -65 0 -19 -4
-38 -10 -41 -29 -18 21 -115 60 -115 10 0 22 -4 25 -10 3 -5 17 -10 31 -10 13
0 24 -4 24 -10 0 -5 7 -10 15 -10 8 0 15 -7 15 -16 0 -8 7 -22 15 -31 8 -8 13
-19 10 -24 -4 -5 1 -10 9 -10 24 -2 30 -4 43 -12 6 -4 18 -5 25 -2 8 3 21 -1
28 -9 19 -24 30 -10 30 39 0 42 -1 43 -30 41 -29 -2 -30 -1 -30 46 0 47 -1 48
-30 48 -28 0 -30 3 -36 50 -4 28 -10 50 -13 50 -4 0 -8 12 -9 27 -4 47 -35 88
-70 91 -20 2 -32 9 -32 18 0 8 -5 14 -11 14 -6 0 -9 -6 -6 -14z"/>
<path d="M60020 38270 c-13 -11 -27 -20 -32 -20 -4 0 -8 -6 -8 -13 0 -8 -13
-32 -28 -53 -29 -41 -78 -145 -84 -179 -2 -14 -12 -21 -36 -23 -32 -3 -41 -15
-21 -27 6 -4 9 -33 7 -68 -3 -59 -4 -62 -31 -67 -22 -4 -32 -13 -42 -42 -11
-32 -10 -39 4 -52 9 -8 27 -17 41 -21 23 -5 28 0 57 57 32 63 81 154 161 299
23 42 42 82 42 90 0 8 11 37 23 64 13 28 22 56 20 63 -7 19 -47 14 -73 -8z"/>
<path d="M4101 38144 c0 -11 3 -14 6 -6 3 7 2 16 -1 19 -3 4 -6 -2 -5 -13z"/>
<path d="M4239 37968 c0 -2 -3 -15 -5 -30 -4 -24 -1 -28 21 -28 23 0 25 -4 25
-45 0 -25 5 -45 10 -45 6 0 10 -5 10 -11 0 -5 -4 -7 -10 -4 -5 3 -10 2 -10 -4
0 -5 14 -11 32 -13 34 -3 32 2 53 -113 6 -32 9 -36 15 -20 4 11 5 36 3 55 -3
26 -1 31 6 20 8 -12 11 -8 11 17 0 17 -4 34 -9 37 -5 3 -12 18 -15 33 -13 55
-61 142 -81 147 -21 6 -54 8 -56 4z"/>
<path d="M7303 37923 c-10 -26 25 -177 53 -226 34 -62 60 -83 99 -78 6 0 9 32
7 78 -2 69 -7 88 -44 161 -39 78 -42 82 -75 82 -22 0 -36 -6 -40 -17z"/>
<path d="M59658 37767 c-3 -19 -2 -25 4 -19 6 6 8 18 6 28 -3 14 -5 12 -10 -9z"/>
<path d="M7635 37382 c3 -104 10 -132 33 -132 19 0 80 21 100 33 8 6 12 0 13
-20 l1 -28 13 30 c21 45 18 55 -15 55 -28 0 -30 2 -30 40 0 51 -48 110 -89
110 l-28 0 2 -88z"/>
<path d="M4502 37431 c2 -3 20 -39 41 -78 20 -40 36 -76 35 -80 -1 -5 1 -18 6
-30 6 -18 15 -23 42 -23 l34 0 0 -60 c0 -60 0 -60 29 -60 16 0 31 -6 34 -12 2
-7 8 4 12 25 10 51 -31 149 -66 157 -26 6 -69 71 -69 106 0 33 -22 53 -63 57
-21 3 -36 2 -35 -2z"/>
<path d="M59276 37154 c-31 -39 -30 -45 7 -48 26 -1 32 -30 9 -44 -6 -5 -16
-42 -22 -83 -10 -76 -12 -193 -4 -172 3 7 11 10 18 7 8 -3 16 3 20 13 3 10 17
36 31 58 13 22 27 57 30 77 5 30 11 38 28 38 42 0 49 12 36 64 -12 47 -39 76
-71 76 -12 0 -18 8 -18 23 0 35 -32 30 -64 -9z"/>
<path d="M56131 37066 c-9 -11 -9 -15 1 -19 10 -4 10 -8 -2 -16 -12 -9 -10
-11 13 -11 31 0 31 0 13 34 -11 22 -15 24 -25 12z"/>
<path d="M8066 36928 c-3 -13 -5 -59 -5 -103 0 -79 1 -80 35 -109 32 -26 36
-27 58 -13 18 12 24 28 29 73 3 32 4 61 1 66 -3 4 -18 8 -35 8 -26 0 -29 3
-29 30 0 17 -9 39 -20 50 -25 25 -26 25 -34 -2z"/>
<path d="M56024 36913 c-3 -16 -9 -38 -14 -50 -7 -16 -4 -25 11 -39 18 -16 20
-16 39 1 11 10 20 29 20 42 0 12 5 23 10 23 16 0 11 37 -6 44 -34 13 -54 6
-60 -21z"/>
<path d="M59114 36860 c0 -11 6 -20 13 -20 15 0 15 2 7 24 -9 22 -20 20 -20
-4z"/>
<path d="M59026 36841 c-4 -5 -2 -12 3 -15 5 -4 12 -2 15 3 4 5 2 12 -3 15 -5
4 -12 2 -15 -3z"/>
<path d="M4854 36829 c-4 -7 -3 -9 4 -5 5 3 12 0 15 -6 2 -7 7 -10 11 -7 4 3
0 12 -8 18 -11 9 -16 9 -22 0z"/>
<path d="M4915 36819 c-4 -6 -5 -12 -2 -15 2 -3 7 2 10 11 7 17 1 20 -8 4z"/>
<path d="M56010 36788 c0 -19 2 -20 10 -8 13 19 13 30 0 30 -5 0 -10 -10 -10
-22z"/>
<path d="M55970 36785 c-10 -12 -10 -15 4 -15 9 0 16 7 16 15 0 8 -2 15 -4 15
-2 0 -9 -7 -16 -15z"/>
<path d="M58866 36524 c-11 -28 -6 -38 9 -18 8 10 15 22 15 27 0 13 -18 7 -24
-9z"/>
<path d="M8255 36520 c3 -5 12 -7 20 -3 21 7 19 13 -6 13 -11 0 -18 -4 -14
-10z"/>
<path d="M5080 36494 c0 -6 64 -34 77 -34 4 0 -3 9 -17 20 -23 18 -60 27 -60
14z"/>
<path d="M8497 36382 c-22 -24 -21 -38 1 -60 44 -45 72 -86 63 -91 -21 -13
-14 -28 32 -70 31 -29 51 -41 55 -34 4 7 20 14 35 17 15 2 34 12 43 20 8 9 20
16 25 16 23 0 6 20 -23 28 -28 7 -34 13 -37 43 -3 27 -16 45 -68 92 -69 60
-99 70 -126 39z"/>
<path d="M5231 36334 c0 -11 3 -14 6 -6 3 7 2 16 -1 19 -3 4 -6 -2 -5 -13z"/>
<path d="M5245 36251 c-13 -12 -3 -31 16 -31 11 0 17 5 14 10 -3 6 -1 10 4 10
6 0 11 4 11 8 0 8 -38 11 -45 3z"/>
<path d="M58627 36170 c-9 -14 -17 -32 -17 -42 0 -9 -4 -19 -9 -22 -16 -10
-20 -56 -5 -56 13 0 18 13 15 33 -1 5 8 26 20 47 25 44 22 77 -4 40z"/>
<path d="M5301 36171 c-10 -6 -10 -10 -1 -16 13 -8 24 -1 19 14 -3 6 -10 7
-18 2z"/>
<path d="M8752 36048 c-7 -7 -12 -24 -12 -39 0 -26 1 -26 83 -33 99 -8 114 -4
113 32 -1 22 -8 28 -41 38 -53 16 -128 17 -143 2z"/>
<path d="M58510 36000 c-6 -11 -8 -25 -5 -30 12 -19 -25 -68 -60 -80 -19 -6
-33 -15 -31 -18 2 -4 -2 -16 -10 -26 -11 -16 -16 -17 -30 -5 -15 12 -16 10
-12 -29 3 -33 1 -41 -10 -37 -10 3 -12 0 -8 -10 3 -9 -1 -18 -9 -21 -8 -4 -15
-12 -15 -20 0 -7 -8 -19 -18 -26 -36 -26 -35 -38 2 -38 29 0 36 4 36 20 0 11
7 20 15 20 10 0 15 10 15 30 0 19 5 30 14 30 8 0 16 7 20 15 3 9 18 15 35 15
22 0 30 -5 35 -25 4 -14 4 -35 1 -47 -3 -13 -2 -40 2 -61 l8 -38 50 49 c28 27
58 58 68 69 19 21 23 38 7 28 -5 -3 -10 3 -10 14 0 17 -6 21 -35 21 -24 0 -35
-5 -35 -14 0 -23 -18 -28 -29 -8 -12 23 16 112 64 206 15 28 15 28 -9 24 -14
-3 -23 -1 -20 3 3 5 1 9 -5 9 -6 0 -15 -9 -21 -20z"/>
<path d="M9119 35813 c-1 -4 0 -12 1 -18 1 -5 3 -34 6 -65 2 -30 8 -66 14 -80
5 -14 10 -38 12 -55 2 -24 9 -30 36 -36 31 -6 32 -5 32 27 0 24 5 34 15 34 25
0 75 -29 99 -57 17 -20 29 -24 60 -21 l38 3 -46 49 c-25 26 -46 52 -46 58 0 5
-5 6 -11 3 -10 -7 -69 51 -69 68 0 5 -6 7 -14 4 -9 -4 -16 3 -20 16 -3 12 -8
18 -12 14 -4 -4 -27 9 -51 29 -23 19 -44 32 -44 27z"/>
<path d="M58233 35493 c-7 -2 -13 -14 -13 -26 0 -12 -7 -31 -15 -41 -8 -11
-15 -29 -15 -40 0 -21 -38 -83 -78 -128 -35 -38 -26 -62 27 -69 l44 -6 19 46
c53 127 49 121 80 121 26 0 28 2 28 43 0 36 4 46 25 57 34 18 32 25 -14 38
-40 12 -67 14 -88 5z"/>
<path d="M5860 35400 c0 -5 8 -10 18 -11 14 0 14 -2 -3 -9 -15 -6 -16 -9 -4
-9 21 -1 29 8 22 25 -6 16 -33 19 -33 4z"/>
<path d="M6095 35130 c11 -5 14 -9 8 -9 -8 -1 -13 -16 -13 -40 0 -37 2 -40 33
-43 28 -3 32 -7 35 -35 3 -29 7 -33 32 -33 22 0 29 -6 35 -27 5 -21 8 -24 16
-12 7 12 9 11 9 -3 0 -12 8 -18 24 -18 12 0 51 -3 85 -7 l63 -6 -4 38 c-3 33
-10 42 -41 60 -33 18 -47 20 -110 14 -85 -8 -97 0 -97 68 0 47 -17 64 -67 62
-25 0 -26 -1 -8 -9z"/>
<path d="M57762 35080 c0 -19 2 -27 5 -17 2 9 2 25 0 35 -3 9 -5 1 -5 -18z"/>
<path d="M10073 34965 c-7 -20 -2 -24 31 -27 15 -1 32 -8 38 -15 10 -12 14
-71 7 -108 -4 -19 2 -20 79 -23 l82 -3 0 32 c0 28 -3 31 -25 27 -14 -3 -22 -1
-18 5 3 5 -3 6 -16 2 -11 -3 -21 -2 -21 3 0 5 -9 12 -20 15 -15 4 -20 14 -20
36 0 26 -6 34 -40 51 -47 24 -69 25 -77 5z"/>
<path d="M30723 34740 c0 -47 2 -66 4 -42 2 23 2 61 0 85 -2 23 -4 4 -4 -43z"/>
<path d="M57350 34559 c0 -5 5 -7 10 -4 6 3 10 8 10 11 0 2 -4 4 -10 4 -5 0
-10 -5 -10 -11z"/>
<path d="M57231 34257 c-42 -43 -52 -59 -46 -76 4 -12 2 -21 -4 -21 -6 0 -11
-6 -11 -14 0 -16 -21 -26 -55 -26 -15 0 -25 -7 -29 -22 -10 -39 -7 -68 8 -74
21 -8 240 184 244 213 2 13 7 21 12 18 4 -3 13 2 20 11 18 20 2 34 -46 41 -37
4 -42 1 -93 -50z"/>
<path d="M30700 34255 c0 -19 5 -35 10 -35 6 0 10 16 10 35 0 19 -4 35 -10 35
-5 0 -10 -16 -10 -35z"/>
<path d="M30702 34120 c0 -19 2 -27 5 -17 2 9 2 25 0 35 -3 9 -5 1 -5 -18z"/>
<path d="M30712 34000 c0 -14 2 -19 5 -12 2 6 2 18 0 25 -3 6 -5 1 -5 -13z"/>
<path d="M30693 33905 c0 -38 2 -53 4 -32 2 20 2 52 0 70 -2 17 -4 1 -4 -38z"/>
<path d="M30694 33565 c0 -126 2 -177 3 -112 2 65 2 168 0 230 -1 62 -3 9 -3
-118z"/>
<path d="M56429 33477 c-31 -18 -63 -38 -71 -44 -11 -10 -17 -10 -26 -1 -16
16 -23 6 -26 -39 -1 -21 -6 -44 -10 -51 -4 -7 0 -15 10 -19 10 -4 19 -2 22 5
2 7 10 12 17 12 8 0 20 8 27 18 18 24 93 82 107 82 6 0 11 6 11 13 0 6 3 22 6
35 8 28 1 27 -67 -11z"/>
<path d="M8548 32893 c6 -2 18 -2 25 0 6 3 1 5 -13 5 -14 0 -19 -2 -12 -5z"/>
<path d="M8542 32759 c-19 -30 2 -51 22 -24 8 11 12 23 10 27 -3 5 -3 8 0 8 3
0 14 -17 25 -37 l20 -38 1 36 c0 25 -5 39 -16 43 -29 11 -49 6 -62 -15z"/>
<path d="M8670 32624 c0 -31 23 -28 28 4 2 15 -2 22 -12 22 -11 0 -16 -9 -16
-26z"/>
<path d="M8695 30740 c3 -5 11 -10 16 -10 6 0 7 5 4 10 -3 6 -11 10 -16 10 -6
0 -7 -4 -4 -10z"/>
<path d="M8830 30700 c0 -5 -6 -10 -14 -10 -9 0 -12 -7 -9 -20 3 -11 10 -20
15 -20 17 0 38 28 32 44 -7 18 -24 22 -24 6z"/>
<path d="M8217 30663 c-4 -3 -7 -11 -7 -17 0 -6 5 -5 12 2 6 6 9 14 7 17 -3 3
-9 2 -12 -2z"/>
<path d="M19033 30583 c9 -2 25 -2 35 0 9 3 1 5 -18 5 -19 0 -27 -2 -17 -5z"/>
<path d="M8201 30410 c-7 -27 -10 -59 -6 -70 4 -12 2 -26 -3 -33 -6 -7 -13
-34 -17 -62 -5 -36 -4 -46 4 -35 6 8 11 24 12 35 0 16 3 14 13 -9 l13 -28 6
23 c4 13 7 32 7 42 0 10 7 25 15 33 11 11 14 34 13 77 -1 55 -2 57 -5 15 -2
-27 -10 -48 -18 -52 -11 -4 -12 6 -8 48 7 69 -10 79 -26 16z"/>
<path d="M9779 30053 c-8 -56 23 -97 66 -88 53 11 93 7 141 -14 56 -25 132
-28 140 -6 4 8 12 15 20 15 8 0 14 7 14 15 0 8 -9 15 -19 15 -11 0 -41 11 -68
24 -26 13 -72 29 -101 35 -60 12 -191 15 -193 4z"/>
<path d="M10445 29640 c3 -5 15 -10 26 -10 11 0 17 5 14 10 -3 6 -15 10 -26
10 -11 0 -17 -4 -14 -10z"/>
<path d="M8095 28966 c-4 -51 -4 -116 0 -144 4 -28 2 -59 -3 -69 -5 -10 -6
-29 -3 -42 4 -14 3 -59 -1 -100 -5 -42 -12 -146 -16 -231 -6 -115 -12 -161
-24 -180 -12 -17 -19 -61 -24 -142 l-7 -118 56 0 c43 0 57 4 63 18 9 19 13
178 21 693 4 304 3 341 -12 373 -29 61 -42 46 -50 -58z"/>
<path d="M8014 27633 c-5 -148 -9 -302 -9 -343 0 -41 -4 -78 -8 -81 -14 -10
-21 -89 -9 -89 14 0 32 33 32 59 0 25 28 89 51 116 30 34 56 385 29 385 -5 0
-10 -9 -10 -20 0 -11 -3 -20 -7 -21 -5 0 -18 -2 -31 -5 l-23 -4 3 135 c2 74 0
135 -3 135 -4 0 -10 -120 -15 -267z"/>
<path d="M7977 26892 c-5 -7 -8 -210 -7 -450 2 -519 4 -468 -16 -451 -23 19
-41 -9 -36 -55 4 -33 7 -36 37 -36 43 0 48 15 45 129 -4 122 -2 150 10 131 6
-10 10 113 12 345 2 198 0 364 -4 370 -5 5 -8 4 -8 -3 0 -22 -19 -13 -22 11
-2 16 -5 18 -11 9z"/>
<path d="M10633 26277 c-14 -17 -36 -348 -24 -360 6 -6 22 -2 44 12 19 11 42
21 51 21 26 0 19 19 -14 38 l-30 17 0 137 c0 131 -6 162 -27 135z"/>
<path d="M8012 26105 c0 -16 2 -22 5 -12 2 9 2 23 0 30 -3 6 -5 -1 -5 -18z"/>
<path d="M10953 25863 c15 -2 37 -2 50 0 12 2 0 4 -28 4 -27 0 -38 -2 -22 -4z"/>
<path d="M33355 25551 c0 -99 2 -108 17 -100 45 24 79 109 44 109 -8 0 -17 8
-19 18 -4 16 -5 16 -6 0 0 -10 -5 -18 -11 -18 -5 0 -10 23 -10 50 0 28 -3 50
-7 50 -5 0 -8 -49 -8 -109z m55 -46 c0 -3 -9 -15 -20 -27 -21 -23 -28 -7 -7
17 12 14 27 20 27 10z"/>
<path d="M7896 25179 c-6 -30 -13 -89 -46 -384 -10 -90 -13 -875 -4 -899 20
-52 25 14 24 352 0 202 -1 374 0 384 0 9 13 21 30 27 17 5 31 14 31 18 1 4 3
17 5 28 30 161 26 258 -15 434 -17 70 -18 72 -25 40z"/>
<path d="M56236 24638 c-4 -23 -11 -47 -15 -53 -5 -5 -11 -124 -14 -262 -6
-240 -6 -253 11 -253 23 0 57 -36 72 -74 6 -16 12 -27 14 -25 7 7 -6 299 -13
295 -3 -2 -6 48 -6 112 -1 276 -3 302 -24 302 -14 0 -20 -10 -25 -42z"/>
</g>
</svg>
